<svg width="16" height="16" viewBox="0 0 16 16" fill="none" xmlns="http://www.w3.org/2000/svg">
<mask id="mask0_11429_102" style="mask-type:alpha" maskUnits="userSpaceOnUse" x="0" y="0" width="16" height="16">
<rect width="16" height="16" fill="#D9D9D9"/>
</mask>
<g mask="url(#mask0_11429_102)">
<path d="M7.0188 12.3269L10.7162 7.84317H8.02606L8.51582 4.0017L5.19315 8.8124H7.51837L7.0188 12.3269ZM6.22353 9.93887H4.20088C3.95454 9.93887 3.77543 9.83103 3.66356 9.61537C3.5517 9.3997 3.56728 9.18688 3.7103 8.97692L8.83503 1.55775C8.9091 1.45519 9.0108 1.38148 9.14015 1.3366C9.26949 1.29173 9.39513 1.29579 9.51707 1.34878C9.639 1.39893 9.73714 1.48274 9.8115 1.60023C9.88585 1.71773 9.91777 1.84032 9.90723 1.968L9.3051 6.7167H11.8059C12.0707 6.7167 12.2589 6.83529 12.3703 7.07247C12.4818 7.30963 12.4527 7.5295 12.2829 7.73207L6.67052 14.5072C6.57978 14.6082 6.47242 14.6753 6.34842 14.7086C6.22442 14.7419 6.10073 14.7262 5.97737 14.6617C5.85117 14.6 5.76029 14.5148 5.70473 14.406C5.64918 14.2973 5.62895 14.1755 5.64405 14.0406L6.22353 9.93887Z" fill="#77818C"/>
</g>
</svg>
